<?xml version="1.0" encoding="UTF-8" standalone="no"?><svg xmlns="http://www.w3.org/2000/svg" xmlns:xlink="http://www.w3.org/1999/xlink" contentStyleType="text/css" height="1037px" preserveAspectRatio="none" style="width:1627px;height:1037px;background:#FFFFFF;" version="1.1" viewBox="0 0 1627 1037" width="1627px" zoomAndPan="magnify"><defs/><g><!--MD5=[afb5565d883f3e3a0b3fef877e84cf56]
class flagi--><g id="elem_flagi"><rect codeLine="2" fill="#F1F1F1" height="83.2188" id="flagi" rx="2.5" ry="2.5" style="stroke:#181818;stroke-width:0.5;" width="181" x="855" y="397"/><ellipse cx="928.25" cy="413" fill="#ADD1B2" rx="11" ry="11" style="stroke:#181818;stroke-width:1.0;"/><path d="M927.1094,413.7969 L927.1094,416.2969 L931.4375,416.2969 L931.4375,415.375 Q931.4375,414.7656 931.6719,414.5 Q931.9219,414.2344 932.2969,414.2344 Q932.6719,414.2344 932.9063,414.5 Q933.1406,414.7656 933.1406,415.375 L933.1406,418 L925.1406,418 Q924.5156,418 924.25,417.7656 Q924,417.5313 924,417.1406 Q924,416.7656 924.2656,416.5313 Q924.5313,416.2969 925.1406,416.2969 L925.4063,416.2969 L925.4063,409.6406 L925.1406,409.6406 Q924.5156,409.6406 924.25,409.4063 Q924,409.1719 924,408.7813 Q924,408.4063 924.25,408.1719 Q924.5156,407.9375 925.1406,407.9375 L932.7656,407.9375 L932.7656,410.5313 Q932.7656,411.1406 932.5313,411.4063 Q932.3125,411.6563 931.9219,411.6563 Q931.5469,411.6563 931.3125,411.4063 Q931.0781,411.1406 931.0781,410.5313 L931.0781,409.6406 L927.1094,409.6406 L927.1094,412.0938 L928.5938,412.0938 Q928.5938,411.4375 928.7188,411.25 Q928.9844,410.8438 929.4531,410.8438 Q929.8281,410.8438 930.0625,411.1094 Q930.2969,411.3594 930.2969,411.9688 L930.2969,413.9375 Q930.2969,414.4844 930.1719,414.6719 Q929.9063,415.0625 929.4531,415.0625 Q928.9844,415.0625 928.7188,414.6563 Q928.5938,414.4688 928.5938,413.7969 L927.1094,413.7969 Z " fill="#000000"/><text fill="#000000" font-family="sans-serif" font-size="14" lengthAdjust="spacing" textLength="26" x="948.75" y="418.7285">flagi</text><line style="stroke:#181818;stroke-width:0.5;" x1="856" x2="1035" y1="429" y2="429"/><line style="stroke:#181818;stroke-width:0.5;" x1="856" x2="1035" y1="437" y2="437"/><ellipse cx="866" cy="451.3047" fill="#84BE84" rx="3" ry="3" style="stroke:#038048;stroke-width:1.0;"/><text fill="#000000" font-family="sans-serif" font-size="14" lengthAdjust="spacing" textLength="100" x="875" y="455.5332">id_flagi: int (PK)</text><text fill="#000000" font-family="sans-serif" font-size="14" lengthAdjust="spacing" textLength="155" x="875" y="473.1426">kod: varchar(14) not null</text></g><!--MD5=[6723a9c51aad32b46922964344f85be4]
class forum_odp--><g id="elem_forum_odp"><rect codeLine="7" fill="#F1F1F1" height="136.0469" id="forum_odp" rx="2.5" ry="2.5" style="stroke:#181818;stroke-width:0.5;" width="197" x="549" y="60"/><ellipse cx="609.25" cy="76" fill="#ADD1B2" rx="11" ry="11" style="stroke:#181818;stroke-width:1.0;"/><path d="M608.1094,76.7969 L608.1094,79.2969 L612.4375,79.2969 L612.4375,78.375 Q612.4375,77.7656 612.6719,77.5 Q612.9219,77.2344 613.2969,77.2344 Q613.6719,77.2344 613.9063,77.5 Q614.1406,77.7656 614.1406,78.375 L614.1406,81 L606.1406,81 Q605.5156,81 605.25,80.7656 Q605,80.5313 605,80.1406 Q605,79.7656 605.2656,79.5313 Q605.5313,79.2969 606.1406,79.2969 L606.4063,79.2969 L606.4063,72.6406 L606.1406,72.6406 Q605.5156,72.6406 605.25,72.4063 Q605,72.1719 605,71.7813 Q605,71.4063 605.25,71.1719 Q605.5156,70.9375 606.1406,70.9375 L613.7656,70.9375 L613.7656,73.5313 Q613.7656,74.1406 613.5313,74.4063 Q613.3125,74.6563 612.9219,74.6563 Q612.5469,74.6563 612.3125,74.4063 Q612.0781,74.1406 612.0781,73.5313 L612.0781,72.6406 L608.1094,72.6406 L608.1094,75.0938 L609.5938,75.0938 Q609.5938,74.4375 609.7188,74.25 Q609.9844,73.8438 610.4531,73.8438 Q610.8281,73.8438 611.0625,74.1094 Q611.2969,74.3594 611.2969,74.9688 L611.2969,76.9375 Q611.2969,77.4844 611.1719,77.6719 Q610.9063,78.0625 610.4531,78.0625 Q609.9844,78.0625 609.7188,77.6563 Q609.5938,77.4688 609.5938,76.7969 L608.1094,76.7969 Z " fill="#000000"/><text fill="#000000" font-family="sans-serif" font-size="14" lengthAdjust="spacing" textLength="68" x="629.75" y="81.7285">forum_odp</text><line style="stroke:#181818;stroke-width:0.5;" x1="550" x2="745" y1="92" y2="92"/><text fill="#000000" font-family="sans-serif" font-size="14" lengthAdjust="spacing" textLength="175" x="555" y="110.5332">data_wpis: datetime not null</text><line style="stroke:#181818;stroke-width:0.5;" x1="550" x2="745" y1="117.6094" y2="117.6094"/><ellipse cx="560" cy="131.9141" fill="#84BE84" rx="3" ry="3" style="stroke:#038048;stroke-width:1.0;"/><text fill="#000000" font-family="sans-serif" font-size="14" lengthAdjust="spacing" textLength="98" x="569" y="136.1426">id_odp: int (PK)</text><ellipse cx="560" cy="149.5234" fill="#84BE84" rx="3" ry="3" style="stroke:#038048;stroke-width:1.0;"/><text fill="#000000" font-family="sans-serif" font-size="14" lengthAdjust="spacing" textLength="101" x="569" y="153.752">id_wpis: int (FK)</text><ellipse cx="560" cy="167.1328" fill="#84BE84" rx="3" ry="3" style="stroke:#038048;stroke-width:1.0;"/><text fill="#000000" font-family="sans-serif" font-size="14" lengthAdjust="spacing" textLength="106" x="569" y="171.3613">id_uzytk: int (FK)</text><text fill="#000000" font-family="sans-serif" font-size="14" lengthAdjust="spacing" textLength="171" x="569" y="188.9707">tresc: varchar(700) not null</text></g><!--MD5=[047e14cbffc419afabf3bb9315a50e89]
class forum_wpisy--><g id="elem_forum_wpisy"><rect codeLine="15" fill="#F1F1F1" height="153.6563" id="forum_wpisy" rx="2.5" ry="2.5" style="stroke:#181818;stroke-width:0.5;" width="201" x="547" y="361.5"/><ellipse cx="604.25" cy="377.5" fill="#ADD1B2" rx="11" ry="11" style="stroke:#181818;stroke-width:1.0;"/><path d="M603.1094,378.2969 L603.1094,380.7969 L607.4375,380.7969 L607.4375,379.875 Q607.4375,379.2656 607.6719,379 Q607.9219,378.7344 608.2969,378.7344 Q608.6719,378.7344 608.9063,379 Q609.1406,379.2656 609.1406,379.875 L609.1406,382.5 L601.1406,382.5 Q600.5156,382.5 600.25,382.2656 Q600,382.0313 600,381.6406 Q600,381.2656 600.2656,381.0313 Q600.5313,380.7969 601.1406,380.7969 L601.4063,380.7969 L601.4063,374.1406 L601.1406,374.1406 Q600.5156,374.1406 600.25,373.9063 Q600,373.6719 600,373.2813 Q600,372.9063 600.25,372.6719 Q600.5156,372.4375 601.1406,372.4375 L608.7656,372.4375 L608.7656,375.0313 Q608.7656,375.6406 608.5313,375.9063 Q608.3125,376.1563 607.9219,376.1563 Q607.5469,376.1563 607.3125,375.9063 Q607.0781,375.6406 607.0781,375.0313 L607.0781,374.1406 L603.1094,374.1406 L603.1094,376.5938 L604.5938,376.5938 Q604.5938,375.9375 604.7188,375.75 Q604.9844,375.3438 605.4531,375.3438 Q605.8281,375.3438 606.0625,375.6094 Q606.2969,375.8594 606.2969,376.4688 L606.2969,378.4375 Q606.2969,378.9844 606.1719,379.1719 Q605.9063,379.5625 605.4531,379.5625 Q604.9844,379.5625 604.7188,379.1563 Q604.5938,378.9688 604.5938,378.2969 L603.1094,378.2969 Z " fill="#000000"/><text fill="#000000" font-family="sans-serif" font-size="14" lengthAdjust="spacing" textLength="78" x="624.75" y="383.2285">forum_wpisy</text><line style="stroke:#181818;stroke-width:0.5;" x1="548" x2="747" y1="393.5" y2="393.5"/><text fill="#000000" font-family="sans-serif" font-size="14" lengthAdjust="spacing" textLength="175" x="553" y="412.0332">data_wpis: datetime not null</text><line style="stroke:#181818;stroke-width:0.5;" x1="548" x2="747" y1="419.1094" y2="419.1094"/><ellipse cx="558" cy="433.4141" fill="#84BE84" rx="3" ry="3" style="stroke:#038048;stroke-width:1.0;"/><text fill="#000000" font-family="sans-serif" font-size="14" lengthAdjust="spacing" textLength="101" x="567" y="437.6426">id_wpis: int (PK)</text><ellipse cx="558" cy="451.0234" fill="#84BE84" rx="3" ry="3" style="stroke:#038048;stroke-width:1.0;"/><text fill="#000000" font-family="sans-serif" font-size="14" lengthAdjust="spacing" textLength="120" x="567" y="455.252">id_przedm: int (FK)</text><ellipse cx="558" cy="468.6328" fill="#84BE84" rx="3" ry="3" style="stroke:#038048;stroke-width:1.0;"/><text fill="#000000" font-family="sans-serif" font-size="14" lengthAdjust="spacing" textLength="106" x="567" y="472.8613">id_uzytk: int (FK)</text><text fill="#000000" font-family="sans-serif" font-size="14" lengthAdjust="spacing" textLength="175" x="567" y="490.4707">temat: varchar(200) not null</text><text fill="#000000" font-family="sans-serif" font-size="14" lengthAdjust="spacing" textLength="171" x="567" y="508.0801">tresc: varchar(700) not null</text></g><!--MD5=[9db3b70316367e1082d7c4334738e1c2]
class materialy--><g id="elem_materialy"><rect codeLine="24" fill="#F1F1F1" height="241.7031" id="materialy" rx="2.5" ry="2.5" style="stroke:#181818;stroke-width:0.5;" width="275" x="239" y="7"/><ellipse cx="343.75" cy="23" fill="#ADD1B2" rx="11" ry="11" style="stroke:#181818;stroke-width:1.0;"/><path d="M342.6094,23.7969 L342.6094,26.2969 L346.9375,26.2969 L346.9375,25.375 Q346.9375,24.7656 347.1719,24.5 Q347.4219,24.2344 347.7969,24.2344 Q348.1719,24.2344 348.4063,24.5 Q348.6406,24.7656 348.6406,25.375 L348.6406,28 L340.6406,28 Q340.0156,28 339.75,27.7656 Q339.5,27.5313 339.5,27.1406 Q339.5,26.7656 339.7656,26.5313 Q340.0313,26.2969 340.6406,26.2969 L340.9063,26.2969 L340.9063,19.6406 L340.6406,19.6406 Q340.0156,19.6406 339.75,19.4063 Q339.5,19.1719 339.5,18.7813 Q339.5,18.4063 339.75,18.1719 Q340.0156,17.9375 340.6406,17.9375 L348.2656,17.9375 L348.2656,20.5313 Q348.2656,21.1406 348.0313,21.4063 Q347.8125,21.6563 347.4219,21.6563 Q347.0469,21.6563 346.8125,21.4063 Q346.5781,21.1406 346.5781,20.5313 L346.5781,19.6406 L342.6094,19.6406 L342.6094,22.0938 L344.0938,22.0938 Q344.0938,21.4375 344.2188,21.25 Q344.4844,20.8438 344.9531,20.8438 Q345.3281,20.8438 345.5625,21.1094 Q345.7969,21.3594 345.7969,21.9688 L345.7969,23.9375 Q345.7969,24.4844 345.6719,24.6719 Q345.4063,25.0625 344.9531,25.0625 Q344.4844,25.0625 344.2188,24.6563 Q344.0938,24.4688 344.0938,23.7969 L342.6094,23.7969 Z " fill="#000000"/><text fill="#000000" font-family="sans-serif" font-size="14" lengthAdjust="spacing" textLength="57" x="364.25" y="28.7285">materialy</text><line style="stroke:#181818;stroke-width:0.5;" x1="240" x2="513" y1="39" y2="39"/><text fill="#000000" font-family="sans-serif" font-size="14" lengthAdjust="spacing" textLength="185" x="245" y="57.5332">data_wstaw: datetime not null</text><text fill="#000000" font-family="sans-serif" font-size="14" lengthAdjust="spacing" textLength="34" x="245" y="75.1426">lp: int</text><text fill="#000000" font-family="sans-serif" font-size="14" lengthAdjust="spacing" textLength="133" x="245" y="92.752">plik: longblob not null</text><line style="stroke:#181818;stroke-width:0.5;" x1="240" x2="513" y1="99.8281" y2="99.8281"/><ellipse cx="250" cy="114.1328" fill="#84BE84" rx="3" ry="3" style="stroke:#038048;stroke-width:1.0;"/><text fill="#000000" font-family="sans-serif" font-size="14" lengthAdjust="spacing" textLength="110" x="259" y="118.3613">id_mater: int (PK)</text><ellipse cx="250" cy="131.7422" fill="#84BE84" rx="3" ry="3" style="stroke:#038048;stroke-width:1.0;"/><text fill="#000000" font-family="sans-serif" font-size="14" lengthAdjust="spacing" textLength="120" x="259" y="135.9707">id_przedm: int (FK)</text><text fill="#000000" font-family="sans-serif" font-size="14" lengthAdjust="spacing" textLength="175" x="259" y="153.5801">temat: varchar(200) not null</text><text fill="#000000" font-family="sans-serif" font-size="14" lengthAdjust="spacing" textLength="208" x="259" y="171.1895">nazwa_pliku: varchar(80) not null</text><text fill="#000000" font-family="sans-serif" font-size="14" lengthAdjust="spacing" textLength="142" x="259" y="188.7988">ext: varchar(5) not null</text><text fill="#000000" font-family="sans-serif" font-size="14" lengthAdjust="spacing" textLength="116" x="259" y="206.4082">opis: varchar(500)</text><text fill="#000000" font-family="sans-serif" font-size="14" lengthAdjust="spacing" textLength="249" x="259" y="224.0176">widocznosc: tinyint(1) not null default '1'</text><ellipse cx="250" cy="237.3984" fill="#84BE84" rx="3" ry="3" style="stroke:#038048;stroke-width:1.0;"/><text fill="#000000" font-family="sans-serif" font-size="14" lengthAdjust="spacing" textLength="123" x="259" y="241.627">id_zadania: int (FK)</text></g><!--MD5=[e383484eb49fb7a9eb9f239ca8c6bdcb]
class odpowiedzi_zadania--><g id="elem_odpowiedzi_zadania"><rect codeLine="38" fill="#F1F1F1" height="188.875" id="odpowiedzi_zadania" rx="2.5" ry="2.5" style="stroke:#181818;stroke-width:0.5;" width="197" x="7" y="33.5"/><ellipse cx="39.55" cy="49.5" fill="#ADD1B2" rx="11" ry="11" style="stroke:#181818;stroke-width:1.0;"/><path d="M38.4094,50.2969 L38.4094,52.7969 L42.7375,52.7969 L42.7375,51.875 Q42.7375,51.2656 42.9719,51 Q43.2219,50.7344 43.5969,50.7344 Q43.9719,50.7344 44.2063,51 Q44.4406,51.2656 44.4406,51.875 L44.4406,54.5 L36.4406,54.5 Q35.8156,54.5 35.55,54.2656 Q35.3,54.0313 35.3,53.6406 Q35.3,53.2656 35.5656,53.0313 Q35.8313,52.7969 36.4406,52.7969 L36.7063,52.7969 L36.7063,46.1406 L36.4406,46.1406 Q35.8156,46.1406 35.55,45.9063 Q35.3,45.6719 35.3,45.2813 Q35.3,44.9063 35.55,44.6719 Q35.8156,44.4375 36.4406,44.4375 L44.0656,44.4375 L44.0656,47.0313 Q44.0656,47.6406 43.8313,47.9063 Q43.6125,48.1563 43.2219,48.1563 Q42.8469,48.1563 42.6125,47.9063 Q42.3781,47.6406 42.3781,47.0313 L42.3781,46.1406 L38.4094,46.1406 L38.4094,48.5938 L39.8938,48.5938 Q39.8938,47.9375 40.0188,47.75 Q40.2844,47.3438 40.7531,47.3438 Q41.1281,47.3438 41.3625,47.6094 Q41.5969,47.8594 41.5969,48.4688 L41.5969,50.4375 Q41.5969,50.9844 41.4719,51.1719 Q41.2063,51.5625 40.7531,51.5625 Q40.2844,51.5625 40.0188,51.1563 Q39.8938,50.9688 39.8938,50.2969 L38.4094,50.2969 Z " fill="#000000"/><text fill="#000000" font-family="sans-serif" font-size="14" lengthAdjust="spacing" textLength="126" x="57.45" y="55.2285">odpowiedzi_zadania</text><line style="stroke:#181818;stroke-width:0.5;" x1="8" x2="203" y1="65.5" y2="65.5"/><text fill="#000000" font-family="sans-serif" font-size="14" lengthAdjust="spacing" textLength="116" x="13" y="84.0332">tresc: blob not null</text><text fill="#000000" font-family="sans-serif" font-size="14" lengthAdjust="spacing" textLength="62" x="13" y="101.6426">ocena: int</text><text fill="#000000" font-family="sans-serif" font-size="14" lengthAdjust="spacing" textLength="185" x="13" y="119.252">data_wstaw: datetime not null</text><text fill="#000000" font-family="sans-serif" font-size="14" lengthAdjust="spacing" textLength="136" x="13" y="136.8613">data_oceny: datetime</text><line style="stroke:#181818;stroke-width:0.5;" x1="8" x2="203" y1="143.9375" y2="143.9375"/><ellipse cx="18" cy="158.2422" fill="#84BE84" rx="3" ry="3" style="stroke:#038048;stroke-width:1.0;"/><text fill="#000000" font-family="sans-serif" font-size="14" lengthAdjust="spacing" textLength="143" x="27" y="162.4707">id_odpowiedzi: int (PK)</text><ellipse cx="18" cy="175.8516" fill="#84BE84" rx="3" ry="3" style="stroke:#038048;stroke-width:1.0;"/><text fill="#000000" font-family="sans-serif" font-size="14" lengthAdjust="spacing" textLength="123" x="27" y="180.0801">id_zadania: int (FK)</text><ellipse cx="18" cy="193.4609" fill="#84BE84" rx="3" ry="3" style="stroke:#038048;stroke-width:1.0;"/><text fill="#000000" font-family="sans-serif" font-size="14" lengthAdjust="spacing" textLength="114" x="27" y="197.6895">id_ucznia: int (FK)</text><text fill="#000000" font-family="sans-serif" font-size="14" lengthAdjust="spacing" textLength="136" x="27" y="215.2988">koment: varchar(500)</text></g><!--MD5=[adcd217c405ace3ab080805ef0edf494]
class okresy--><g id="elem_okresy"><rect codeLine="49" fill="#F1F1F1" height="118.4375" id="okresy" rx="2.5" ry="2.5" style="stroke:#181818;stroke-width:0.5;" width="143" x="396" y="912"/><ellipse cx="442.25" cy="928" fill="#ADD1B2" rx="11" ry="11" style="stroke:#181818;stroke-width:1.0;"/><path d="M441.1094,928.7969 L441.1094,931.2969 L445.4375,931.2969 L445.4375,930.375 Q445.4375,929.7656 445.6719,929.5 Q445.9219,929.2344 446.2969,929.2344 Q446.6719,929.2344 446.9063,929.5 Q447.1406,929.7656 447.1406,930.375 L447.1406,933 L439.1406,933 Q438.5156,933 438.25,932.7656 Q438,932.5313 438,932.1406 Q438,931.7656 438.2656,931.5313 Q438.5313,931.2969 439.1406,931.2969 L439.4063,931.2969 L439.4063,924.6406 L439.1406,924.6406 Q438.5156,924.6406 438.25,924.4063 Q438,924.1719 438,923.7813 Q438,923.4063 438.25,923.1719 Q438.5156,922.9375 439.1406,922.9375 L446.7656,922.9375 L446.7656,925.5313 Q446.7656,926.1406 446.5313,926.4063 Q446.3125,926.6563 445.9219,926.6563 Q445.5469,926.6563 445.3125,926.4063 Q445.0781,926.1406 445.0781,925.5313 L445.0781,924.6406 L441.1094,924.6406 L441.1094,927.0938 L442.5938,927.0938 Q442.5938,926.4375 442.7188,926.25 Q442.9844,925.8438 443.4531,925.8438 Q443.8281,925.8438 444.0625,926.1094 Q444.2969,926.3594 444.2969,926.9688 L444.2969,928.9375 Q444.2969,929.4844 444.1719,929.6719 Q443.9063,930.0625 443.4531,930.0625 Q442.9844,930.0625 442.7188,929.6563 Q442.5938,929.4688 442.5938,928.7969 L441.1094,928.7969 Z " fill="#000000"/><text fill="#000000" font-family="sans-serif" font-size="14" lengthAdjust="spacing" textLength="42" x="462.75" y="933.7285">okresy</text><line style="stroke:#181818;stroke-width:0.5;" x1="397" x2="538" y1="944" y2="944"/><text fill="#000000" font-family="sans-serif" font-size="14" lengthAdjust="spacing" textLength="127" x="402" y="962.5332">data_pocz: datetime</text><text fill="#000000" font-family="sans-serif" font-size="14" lengthAdjust="spacing" textLength="128" x="402" y="980.1426">data_konc: datetime</text><line style="stroke:#181818;stroke-width:0.5;" x1="397" x2="538" y1="987.2188" y2="987.2188"/><ellipse cx="407" cy="1001.5234" fill="#84BE84" rx="3" ry="3" style="stroke:#038048;stroke-width:1.0;"/><text fill="#000000" font-family="sans-serif" font-size="14" lengthAdjust="spacing" textLength="117" x="416" y="1005.752">id_okresu: int (PK)</text><text fill="#000000" font-family="sans-serif" font-size="14" lengthAdjust="spacing" textLength="105" x="416" y="1023.3613">kod: varchar(10)</text></g><!--MD5=[b3d88ac9e46fb5b4f07b4f294a21ff4e]
class powiadomienia--><g id="elem_powiadomienia"><rect codeLine="56" fill="#F1F1F1" height="136.0469" id="powiadomienia" rx="2.5" ry="2.5" style="stroke:#181818;stroke-width:0.5;" width="205" x="993" y="60"/><ellipse cx="1044.75" cy="76" fill="#ADD1B2" rx="11" ry="11" style="stroke:#181818;stroke-width:1.0;"/><path d="M1043.6094,76.7969 L1043.6094,79.2969 L1047.9375,79.2969 L1047.9375,78.375 Q1047.9375,77.7656 1048.1719,77.5 Q1048.4219,77.2344 1048.7969,77.2344 Q1049.1719,77.2344 1049.4063,77.5 Q1049.6406,77.7656 1049.6406,78.375 L1049.6406,81 L1041.6406,81 Q1041.0156,81 1040.75,80.7656 Q1040.5,80.5313 1040.5,80.1406 Q1040.5,79.7656 1040.7656,79.5313 Q1041.0313,79.2969 1041.6406,79.2969 L1041.9063,79.2969 L1041.9063,72.6406 L1041.6406,72.6406 Q1041.0156,72.6406 1040.75,72.4063 Q1040.5,72.1719 1040.5,71.7813 Q1040.5,71.4063 1040.75,71.1719 Q1041.0156,70.9375 1041.6406,70.9375 L1049.2656,70.9375 L1049.2656,73.5313 Q1049.2656,74.1406 1049.0313,74.4063 Q1048.8125,74.6563 1048.4219,74.6563 Q1048.0469,74.6563 1047.8125,74.4063 Q1047.5781,74.1406 1047.5781,73.5313 L1047.5781,72.6406 L1043.6094,72.6406 L1043.6094,75.0938 L1045.0938,75.0938 Q1045.0938,74.4375 1045.2188,74.25 Q1045.4844,73.8438 1045.9531,73.8438 Q1046.3281,73.8438 1046.5625,74.1094 Q1046.7969,74.3594 1046.7969,74.9688 L1046.7969,76.9375 Q1046.7969,77.4844 1046.6719,77.6719 Q1046.4063,78.0625 1045.9531,78.0625 Q1045.4844,78.0625 1045.2188,77.6563 Q1045.0938,77.4688 1045.0938,76.7969 L1043.6094,76.7969 Z " fill="#000000"/><text fill="#000000" font-family="sans-serif" font-size="14" lengthAdjust="spacing" textLength="93" x="1065.25" y="81.7285">powiadomienia</text><line style="stroke:#181818;stroke-width:0.5;" x1="994" x2="1197" y1="92" y2="92"/><text fill="#000000" font-family="sans-serif" font-size="14" lengthAdjust="spacing" textLength="185" x="999" y="110.5332">data_wstaw: datetime not null</text><line style="stroke:#181818;stroke-width:0.5;" x1="994" x2="1197" y1="117.6094" y2="117.6094"/><ellipse cx="1004" cy="131.9141" fill="#84BE84" rx="3" ry="3" style="stroke:#038048;stroke-width:1.0;"/><text fill="#000000" font-family="sans-serif" font-size="14" lengthAdjust="spacing" textLength="137" x="1013" y="136.1426">id_powiadom: int (PK)</text><ellipse cx="1004" cy="149.5234" fill="#84BE84" rx="3" ry="3" style="stroke:#038048;stroke-width:1.0;"/><text fill="#000000" font-family="sans-serif" font-size="14" lengthAdjust="spacing" textLength="128" x="1013" y="153.752">id_odbiorcy: int (FK)</text><text fill="#000000" font-family="sans-serif" font-size="14" lengthAdjust="spacing" textLength="179" x="1013" y="171.3613">tresc: varchar(1000) not null</text><ellipse cx="1004" cy="184.7422" fill="#84BE84" rx="3" ry="3" style="stroke:#038048;stroke-width:1.0;"/><text fill="#000000" font-family="sans-serif" font-size="14" lengthAdjust="spacing" textLength="100" x="1013" y="188.9707">id_flagi: int (FK)</text></g><!--MD5=[9cfdf7097657c52c2437fd61de5e56f5]
class przedmioty--><g id="elem_przedmioty"><rect codeLine="64" fill="#F1F1F1" height="224.0938" id="przedmioty" rx="2.5" ry="2.5" style="stroke:#181818;stroke-width:0.5;" width="281" x="507" y="628"/><ellipse cx="609.25" cy="644" fill="#ADD1B2" rx="11" ry="11" style="stroke:#181818;stroke-width:1.0;"/><path d="M608.1094,644.7969 L608.1094,647.2969 L612.4375,647.2969 L612.4375,646.375 Q612.4375,645.7656 612.6719,645.5 Q612.9219,645.2344 613.2969,645.2344 Q613.6719,645.2344 613.9063,645.5 Q614.1406,645.7656 614.1406,646.375 L614.1406,649 L606.1406,649 Q605.5156,649 605.25,648.7656 Q605,648.5313 605,648.1406 Q605,647.7656 605.2656,647.5313 Q605.5313,647.2969 606.1406,647.2969 L606.4063,647.2969 L606.4063,640.6406 L606.1406,640.6406 Q605.5156,640.6406 605.25,640.4063 Q605,640.1719 605,639.7813 Q605,639.4063 605.25,639.1719 Q605.5156,638.9375 606.1406,638.9375 L613.7656,638.9375 L613.7656,641.5313 Q613.7656,642.1406 613.5313,642.4063 Q613.3125,642.6563 612.9219,642.6563 Q612.5469,642.6563 612.3125,642.4063 Q612.0781,642.1406 612.0781,641.5313 L612.0781,640.6406 L608.1094,640.6406 L608.1094,643.0938 L609.5938,643.0938 Q609.5938,642.4375 609.7188,642.25 Q609.9844,641.8438 610.4531,641.8438 Q610.8281,641.8438 611.0625,642.1094 Q611.2969,642.3594 611.2969,642.9688 L611.2969,644.9375 Q611.2969,645.4844 611.1719,645.6719 Q610.9063,646.0625 610.4531,646.0625 Q609.9844,646.0625 609.7188,645.6563 Q609.5938,645.4688 609.5938,644.7969 L608.1094,644.7969 Z " fill="#000000"/><text fill="#000000" font-family="sans-serif" font-size="14" lengthAdjust="spacing" textLength="68" x="629.75" y="649.7285">przedmioty</text><line style="stroke:#181818;stroke-width:0.5;" x1="508" x2="787" y1="660" y2="660"/><text fill="#000000" font-family="sans-serif" font-size="14" lengthAdjust="spacing" textLength="144" x="513" y="678.5332">limit_miejsc: int not null</text><line style="stroke:#181818;stroke-width:0.5;" x1="508" x2="787" y1="685.6094" y2="685.6094"/><ellipse cx="518" cy="699.9141" fill="#84BE84" rx="3" ry="3" style="stroke:#038048;stroke-width:1.0;"/><text fill="#000000" font-family="sans-serif" font-size="14" lengthAdjust="spacing" textLength="120" x="527" y="704.1426">id_przedm: int (PK)</text><text fill="#000000" font-family="sans-serif" font-size="14" lengthAdjust="spacing" textLength="155" x="527" y="721.752">kod: varchar(15) not null</text><text fill="#000000" font-family="sans-serif" font-size="14" lengthAdjust="spacing" textLength="187" x="527" y="739.3613">nazwa: varchar(1000) not null</text><ellipse cx="518" cy="752.7422" fill="#84BE84" rx="3" ry="3" style="stroke:#038048;stroke-width:1.0;"/><text fill="#000000" font-family="sans-serif" font-size="14" lengthAdjust="spacing" textLength="104" x="527" y="756.9707">id_prow: int (FK)</text><text fill="#000000" font-family="sans-serif" font-size="14" lengthAdjust="spacing" textLength="124" x="527" y="774.5801">opis: varchar(2000)</text><text fill="#000000" font-family="sans-serif" font-size="14" lengthAdjust="spacing" textLength="161" x="527" y="792.1895">war_zalicz: varchar(2000)</text><ellipse cx="518" cy="805.5703" fill="#84BE84" rx="3" ry="3" style="stroke:#038048;stroke-width:1.0;"/><text fill="#000000" font-family="sans-serif" font-size="14" lengthAdjust="spacing" textLength="117" x="527" y="809.7988">id_okresu: int (FK)</text><ellipse cx="518" cy="823.1797" fill="#84BE84" rx="3" ry="3" style="stroke:#038048;stroke-width:1.0;"/><text fill="#000000" font-family="sans-serif" font-size="14" lengthAdjust="spacing" textLength="112" x="527" y="827.4082">id_status: int (FK)</text><text fill="#000000" font-family="sans-serif" font-size="14" lengthAdjust="spacing" textLength="255" x="527" y="845.0176">rejestr_uczn: tinyint(1) not null default '1'</text></g><!--MD5=[d6ffe342a3a425a8f4b8717716b453db]
class przedmiot_status--><g id="elem_przedmiot_status"><rect codeLine="77" fill="#F1F1F1" height="100.8281" id="przedmiot_status" rx="2.5" ry="2.5" style="stroke:#181818;stroke-width:0.5;" width="147" x="574" y="920.5"/><ellipse cx="592.6" cy="936.5" fill="#ADD1B2" rx="11" ry="11" style="stroke:#181818;stroke-width:1.0;"/><path d="M591.4594,937.2969 L591.4594,939.7969 L595.7875,939.7969 L595.7875,938.875 Q595.7875,938.2656 596.0219,938 Q596.2719,937.7344 596.6469,937.7344 Q597.0219,937.7344 597.2563,938 Q597.4906,938.2656 597.4906,938.875 L597.4906,941.5 L589.4906,941.5 Q588.8656,941.5 588.6,941.2656 Q588.35,941.0313 588.35,940.6406 Q588.35,940.2656 588.6156,940.0313 Q588.8813,939.7969 589.4906,939.7969 L589.7563,939.7969 L589.7563,933.1406 L589.4906,933.1406 Q588.8656,933.1406 588.6,932.9063 Q588.35,932.6719 588.35,932.2813 Q588.35,931.9063 588.6,931.6719 Q588.8656,931.4375 589.4906,931.4375 L597.1156,931.4375 L597.1156,934.0313 Q597.1156,934.6406 596.8813,934.9063 Q596.6625,935.1563 596.2719,935.1563 Q595.8969,935.1563 595.6625,934.9063 Q595.4281,934.6406 595.4281,934.0313 L595.4281,933.1406 L591.4594,933.1406 L591.4594,935.5938 L592.9438,935.5938 Q592.9438,934.9375 593.0688,934.75 Q593.3344,934.3438 593.8031,934.3438 Q594.1781,934.3438 594.4125,934.6094 Q594.6469,934.8594 594.6469,935.4688 L594.6469,937.4375 Q594.6469,937.9844 594.5219,938.1719 Q594.2563,938.5625 593.8031,938.5625 Q593.3344,938.5625 593.0688,938.1563 Q592.9438,937.9688 592.9438,937.2969 L591.4594,937.2969 Z " fill="#000000"/><text fill="#000000" font-family="sans-serif" font-size="14" lengthAdjust="spacing" textLength="107" x="607.4" y="942.2285">przedmiot_status</text><line style="stroke:#181818;stroke-width:0.5;" x1="575" x2="720" y1="952.5" y2="952.5"/><line style="stroke:#181818;stroke-width:0.5;" x1="575" x2="720" y1="960.5" y2="960.5"/><ellipse cx="585" cy="974.8047" fill="#84BE84" rx="3" ry="3" style="stroke:#038048;stroke-width:1.0;"/><text fill="#000000" font-family="sans-serif" font-size="14" lengthAdjust="spacing" textLength="112" x="594" y="979.0332">id_status: int (PK)</text><text fill="#000000" font-family="sans-serif" font-size="14" lengthAdjust="spacing" textLength="97" x="594" y="996.6426">kod: varchar(3)</text><text fill="#000000" font-family="sans-serif" font-size="14" lengthAdjust="spacing" textLength="121" x="594" y="1014.252">nazwa: varchar(20)</text></g><!--MD5=[5b7b78127bc05933ef87c1aece57953d]
class raport--><g id="elem_raport"><rect codeLine="83" fill="#F1F1F1" height="136.0469" id="raport" rx="2.5" ry="2.5" style="stroke:#181818;stroke-width:0.5;" width="154" x="1233.5" y="60"/><ellipse cx="1287.25" cy="76" fill="#ADD1B2" rx="11" ry="11" style="stroke:#181818;stroke-width:1.0;"/><path d="M1286.1094,76.7969 L1286.1094,79.2969 L1290.4375,79.2969 L1290.4375,78.375 Q1290.4375,77.7656 1290.6719,77.5 Q1290.9219,77.2344 1291.2969,77.2344 Q1291.6719,77.2344 1291.9063,77.5 Q1292.1406,77.7656 1292.1406,78.375 L1292.1406,81 L1284.1406,81 Q1283.5156,81 1283.25,80.7656 Q1283,80.5313 1283,80.1406 Q1283,79.7656 1283.2656,79.5313 Q1283.5313,79.2969 1284.1406,79.2969 L1284.4063,79.2969 L1284.4063,72.6406 L1284.1406,72.6406 Q1283.5156,72.6406 1283.25,72.4063 Q1283,72.1719 1283,71.7813 Q1283,71.4063 1283.25,71.1719 Q1283.5156,70.9375 1284.1406,70.9375 L1291.7656,70.9375 L1291.7656,73.5313 Q1291.7656,74.1406 1291.5313,74.4063 Q1291.3125,74.6563 1290.9219,74.6563 Q1290.5469,74.6563 1290.3125,74.4063 Q1290.0781,74.1406 1290.0781,73.5313 L1290.0781,72.6406 L1286.1094,72.6406 L1286.1094,75.0938 L1287.5938,75.0938 Q1287.5938,74.4375 1287.7188,74.25 Q1287.9844,73.8438 1288.4531,73.8438 Q1288.8281,73.8438 1289.0625,74.1094 Q1289.2969,74.3594 1289.2969,74.9688 L1289.2969,76.9375 Q1289.2969,77.4844 1289.1719,77.6719 Q1288.9063,78.0625 1288.4531,78.0625 Q1287.9844,78.0625 1287.7188,77.6563 Q1287.5938,77.4688 1287.5938,76.7969 L1286.1094,76.7969 Z " fill="#000000"/><text fill="#000000" font-family="sans-serif" font-size="14" lengthAdjust="spacing" textLength="38" x="1307.75" y="81.7285">raport</text><line style="stroke:#181818;stroke-width:0.5;" x1="1234.5" x2="1386.5" y1="92" y2="92"/><text fill="#000000" font-family="sans-serif" font-size="14" lengthAdjust="spacing" textLength="142" x="1239.5" y="110.5332">data_wystaw: datetime</text><text fill="#000000" font-family="sans-serif" font-size="14" lengthAdjust="spacing" textLength="73" x="1239.5" y="128.1426">raport: blob</text><line style="stroke:#181818;stroke-width:0.5;" x1="1234.5" x2="1386.5" y1="135.2188" y2="135.2188"/><ellipse cx="1244.5" cy="149.5234" fill="#84BE84" rx="3" ry="3" style="stroke:#038048;stroke-width:1.0;"/><text fill="#000000" font-family="sans-serif" font-size="14" lengthAdjust="spacing" textLength="120" x="1253.5" y="153.752">id_raportu: int (PK)</text><ellipse cx="1244.5" cy="167.1328" fill="#84BE84" rx="3" ry="3" style="stroke:#038048;stroke-width:1.0;"/><text fill="#000000" font-family="sans-serif" font-size="14" lengthAdjust="spacing" textLength="106" x="1253.5" y="171.3613">id_uzytk: int (FK)</text><text fill="#000000" font-family="sans-serif" font-size="14" lengthAdjust="spacing" textLength="121" x="1253.5" y="188.9707">nazwa: varchar(50)</text></g><!--MD5=[230c8b93044a8b32754c79e4598c3632]
class role--><g id="elem_role"><rect codeLine="91" fill="#F1F1F1" height="83.2188" id="role" rx="2.5" ry="2.5" style="stroke:#181818;stroke-width:0.5;" width="197" x="1423" y="86.5"/><ellipse cx="1505.25" cy="102.5" fill="#ADD1B2" rx="11" ry="11" style="stroke:#181818;stroke-width:1.0;"/><path d="M1504.1094,103.2969 L1504.1094,105.7969 L1508.4375,105.7969 L1508.4375,104.875 Q1508.4375,104.2656 1508.6719,104 Q1508.9219,103.7344 1509.2969,103.7344 Q1509.6719,103.7344 1509.9063,104 Q1510.1406,104.2656 1510.1406,104.875 L1510.1406,107.5 L1502.1406,107.5 Q1501.5156,107.5 1501.25,107.2656 Q1501,107.0313 1501,106.6406 Q1501,106.2656 1501.2656,106.0313 Q1501.5313,105.7969 1502.1406,105.7969 L1502.4063,105.7969 L1502.4063,99.1406 L1502.1406,99.1406 Q1501.5156,99.1406 1501.25,98.9063 Q1501,98.6719 1501,98.2813 Q1501,97.9063 1501.25,97.6719 Q1501.5156,97.4375 1502.1406,97.4375 L1509.7656,97.4375 L1509.7656,100.0313 Q1509.7656,100.6406 1509.5313,100.9063 Q1509.3125,101.1563 1508.9219,101.1563 Q1508.5469,101.1563 1508.3125,100.9063 Q1508.0781,100.6406 1508.0781,100.0313 L1508.0781,99.1406 L1504.1094,99.1406 L1504.1094,101.5938 L1505.5938,101.5938 Q1505.5938,100.9375 1505.7188,100.75 Q1505.9844,100.3438 1506.4531,100.3438 Q1506.8281,100.3438 1507.0625,100.6094 Q1507.2969,100.8594 1507.2969,101.4688 L1507.2969,103.4375 Q1507.2969,103.9844 1507.1719,104.1719 Q1506.9063,104.5625 1506.4531,104.5625 Q1505.9844,104.5625 1505.7188,104.1563 Q1505.5938,103.9688 1505.5938,103.2969 L1504.1094,103.2969 Z " fill="#000000"/><text fill="#000000" font-family="sans-serif" font-size="14" lengthAdjust="spacing" textLength="24" x="1525.75" y="108.2285">role</text><line style="stroke:#181818;stroke-width:0.5;" x1="1424" x2="1619" y1="118.5" y2="118.5"/><line style="stroke:#181818;stroke-width:0.5;" x1="1424" x2="1619" y1="126.5" y2="126.5"/><ellipse cx="1434" cy="140.8047" fill="#84BE84" rx="3" ry="3" style="stroke:#038048;stroke-width:1.0;"/><text fill="#000000" font-family="sans-serif" font-size="14" lengthAdjust="spacing" textLength="93" x="1443" y="145.0332">id_roli: int (PK)</text><text fill="#000000" font-family="sans-serif" font-size="14" lengthAdjust="spacing" textLength="171" x="1443" y="162.6426">nazwa: varchar(10) not null</text></g><!--MD5=[e7ef2642218e7b5450570e630db9524f]
class typy_zadan--><g id="elem_typy_zadan"><rect codeLine="96" fill="#F1F1F1" height="83.2188" id="typy_zadan" rx="2.5" ry="2.5" style="stroke:#181818;stroke-width:0.5;" width="197" x="243" y="698.5"/><ellipse cx="301.25" cy="714.5" fill="#ADD1B2" rx="11" ry="11" style="stroke:#181818;stroke-width:1.0;"/><path d="M300.1094,715.2969 L300.1094,717.7969 L304.4375,717.7969 L304.4375,716.875 Q304.4375,716.2656 304.6719,716 Q304.9219,715.7344 305.2969,715.7344 Q305.6719,715.7344 305.9063,716 Q306.1406,716.2656 306.1406,716.875 L306.1406,719.5 L298.1406,719.5 Q297.5156,719.5 297.25,719.2656 Q297,719.0313 297,718.6406 Q297,718.2656 297.2656,718.0313 Q297.5313,717.7969 298.1406,717.7969 L298.4063,717.7969 L298.4063,711.1406 L298.1406,711.1406 Q297.5156,711.1406 297.25,710.9063 Q297,710.6719 297,710.2813 Q297,709.9063 297.25,709.6719 Q297.5156,709.4375 298.1406,709.4375 L305.7656,709.4375 L305.7656,712.0313 Q305.7656,712.6406 305.5313,712.9063 Q305.3125,713.1563 304.9219,713.1563 Q304.5469,713.1563 304.3125,712.9063 Q304.0781,712.6406 304.0781,712.0313 L304.0781,711.1406 L300.1094,711.1406 L300.1094,713.5938 L301.5938,713.5938 Q301.5938,712.9375 301.7188,712.75 Q301.9844,712.3438 302.4531,712.3438 Q302.8281,712.3438 303.0625,712.6094 Q303.2969,712.8594 303.2969,713.4688 L303.2969,715.4375 Q303.2969,715.9844 303.1719,716.1719 Q302.9063,716.5625 302.4531,716.5625 Q301.9844,716.5625 301.7188,716.1563 Q301.5938,715.9688 301.5938,715.2969 L300.1094,715.2969 Z " fill="#000000"/><text fill="#000000" font-family="sans-serif" font-size="14" lengthAdjust="spacing" textLength="72" x="321.75" y="720.2285">typy_zadan</text><line style="stroke:#181818;stroke-width:0.5;" x1="244" x2="439" y1="730.5" y2="730.5"/><line style="stroke:#181818;stroke-width:0.5;" x1="244" x2="439" y1="738.5" y2="738.5"/><ellipse cx="254" cy="752.8047" fill="#84BE84" rx="3" ry="3" style="stroke:#038048;stroke-width:1.0;"/><text fill="#000000" font-family="sans-serif" font-size="14" lengthAdjust="spacing" textLength="101" x="263" y="757.0332">id_typu: int (PK)</text><text fill="#000000" font-family="sans-serif" font-size="14" lengthAdjust="spacing" textLength="171" x="263" y="774.6426">nazwa: varchar(10) not null</text></g><!--MD5=[c958e8a293184fc99b6924a9db2a1c73]
class uczen_przedmiot--><g id="elem_uczen_przedmiot"><rect codeLine="101" fill="#F1F1F1" height="136.0469" id="uczen_przedmiot" rx="2.5" ry="2.5" style="stroke:#181818;stroke-width:0.5;" width="177" x="781" y="60"/><ellipse cx="813.55" cy="76" fill="#ADD1B2" rx="11" ry="11" style="stroke:#181818;stroke-width:1.0;"/><path d="M812.4094,76.7969 L812.4094,79.2969 L816.7375,79.2969 L816.7375,78.375 Q816.7375,77.7656 816.9719,77.5 Q817.2219,77.2344 817.5969,77.2344 Q817.9719,77.2344 818.2063,77.5 Q818.4406,77.7656 818.4406,78.375 L818.4406,81 L810.4406,81 Q809.8156,81 809.55,80.7656 Q809.3,80.5313 809.3,80.1406 Q809.3,79.7656 809.5656,79.5313 Q809.8313,79.2969 810.4406,79.2969 L810.7063,79.2969 L810.7063,72.6406 L810.4406,72.6406 Q809.8156,72.6406 809.55,72.4063 Q809.3,72.1719 809.3,71.7813 Q809.3,71.4063 809.55,71.1719 Q809.8156,70.9375 810.4406,70.9375 L818.0656,70.9375 L818.0656,73.5313 Q818.0656,74.1406 817.8313,74.4063 Q817.6125,74.6563 817.2219,74.6563 Q816.8469,74.6563 816.6125,74.4063 Q816.3781,74.1406 816.3781,73.5313 L816.3781,72.6406 L812.4094,72.6406 L812.4094,75.0938 L813.8938,75.0938 Q813.8938,74.4375 814.0188,74.25 Q814.2844,73.8438 814.7531,73.8438 Q815.1281,73.8438 815.3625,74.1094 Q815.5969,74.3594 815.5969,74.9688 L815.5969,76.9375 Q815.5969,77.4844 815.4719,77.6719 Q815.2063,78.0625 814.7531,78.0625 Q814.2844,78.0625 814.0188,77.6563 Q813.8938,77.4688 813.8938,76.7969 L812.4094,76.7969 Z " fill="#000000"/><text fill="#000000" font-family="sans-serif" font-size="14" lengthAdjust="spacing" textLength="106" x="831.45" y="81.7285">uczen_przedmiot</text><line style="stroke:#181818;stroke-width:0.5;" x1="782" x2="957" y1="92" y2="92"/><text fill="#000000" font-family="sans-serif" font-size="14" lengthAdjust="spacing" textLength="62" x="787" y="110.5332">ocena: int</text><text fill="#000000" font-family="sans-serif" font-size="14" lengthAdjust="spacing" textLength="165" x="787" y="128.1426">data_wystaw_oc: datetime</text><line style="stroke:#181818;stroke-width:0.5;" x1="782" x2="957" y1="135.2188" y2="135.2188"/><ellipse cx="792" cy="149.5234" fill="#84BE84" rx="3" ry="3" style="stroke:#038048;stroke-width:1.0;"/><text fill="#000000" font-family="sans-serif" font-size="14" lengthAdjust="spacing" textLength="103" x="801" y="153.752">id_encji: int (PK)</text><ellipse cx="792" cy="167.1328" fill="#84BE84" rx="3" ry="3" style="stroke:#038048;stroke-width:1.0;"/><text fill="#000000" font-family="sans-serif" font-size="14" lengthAdjust="spacing" textLength="120" x="801" y="171.3613">id_przedm: int (FK)</text><ellipse cx="792" cy="184.7422" fill="#84BE84" rx="3" ry="3" style="stroke:#038048;stroke-width:1.0;"/><text fill="#000000" font-family="sans-serif" font-size="14" lengthAdjust="spacing" textLength="114" x="801" y="188.9707">id_ucznia: int (FK)</text></g><!--MD5=[f40e83ee74ce585aaa6564b3b3f4ee83]
class uzytkownicy--><g id="elem_uzytkownicy"><rect codeLine="109" fill="#F1F1F1" height="259.3125" id="uzytkownicy" rx="2.5" ry="2.5" style="stroke:#181818;stroke-width:0.5;" width="214" x="1071.5" y="309"/><ellipse cx="1137.25" cy="325" fill="#ADD1B2" rx="11" ry="11" style="stroke:#181818;stroke-width:1.0;"/><path d="M1136.1094,325.7969 L1136.1094,328.2969 L1140.4375,328.2969 L1140.4375,327.375 Q1140.4375,326.7656 1140.6719,326.5 Q1140.9219,326.2344 1141.2969,326.2344 Q1141.6719,326.2344 1141.9063,326.5 Q1142.1406,326.7656 1142.1406,327.375 L1142.1406,330 L1134.1406,330 Q1133.5156,330 1133.25,329.7656 Q1133,329.5313 1133,329.1406 Q1133,328.7656 1133.2656,328.5313 Q1133.5313,328.2969 1134.1406,328.2969 L1134.4063,328.2969 L1134.4063,321.6406 L1134.1406,321.6406 Q1133.5156,321.6406 1133.25,321.4063 Q1133,321.1719 1133,320.7813 Q1133,320.4063 1133.25,320.1719 Q1133.5156,319.9375 1134.1406,319.9375 L1141.7656,319.9375 L1141.7656,322.5313 Q1141.7656,323.1406 1141.5313,323.4063 Q1141.3125,323.6563 1140.9219,323.6563 Q1140.5469,323.6563 1140.3125,323.4063 Q1140.0781,323.1406 1140.0781,322.5313 L1140.0781,321.6406 L1136.1094,321.6406 L1136.1094,324.0938 L1137.5938,324.0938 Q1137.5938,323.4375 1137.7188,323.25 Q1137.9844,322.8438 1138.4531,322.8438 Q1138.8281,322.8438 1139.0625,323.1094 Q1139.2969,323.3594 1139.2969,323.9688 L1139.2969,325.9375 Q1139.2969,326.4844 1139.1719,326.6719 Q1138.9063,327.0625 1138.4531,327.0625 Q1137.9844,327.0625 1137.7188,326.6563 Q1137.5938,326.4688 1137.5938,325.7969 L1136.1094,325.7969 Z " fill="#000000"/><text fill="#000000" font-family="sans-serif" font-size="14" lengthAdjust="spacing" textLength="74" x="1157.75" y="330.7285">uzytkownicy</text><line style="stroke:#181818;stroke-width:0.5;" x1="1072.5" x2="1284.5" y1="341" y2="341"/><text fill="#000000" font-family="sans-serif" font-size="14" lengthAdjust="spacing" textLength="116" x="1077.5" y="359.5332">telefon: int not null</text><text fill="#000000" font-family="sans-serif" font-size="14" lengthAdjust="spacing" textLength="157" x="1077.5" y="377.1426">data_urodz: date not null</text><text fill="#000000" font-family="sans-serif" font-size="14" lengthAdjust="spacing" textLength="198" x="1077.5" y="394.752">status: tinyint not null default '0'</text><line style="stroke:#181818;stroke-width:0.5;" x1="1072.5" x2="1284.5" y1="401.8281" y2="401.8281"/><ellipse cx="1082.5" cy="416.1328" fill="#84BE84" rx="3" ry="3" style="stroke:#038048;stroke-width:1.0;"/><text fill="#000000" font-family="sans-serif" font-size="14" lengthAdjust="spacing" textLength="106" x="1091.5" y="420.3613">id_uzytk: int (PK)</text><text fill="#000000" font-family="sans-serif" font-size="14" lengthAdjust="spacing" textLength="157" x="1091.5" y="437.9707">imie: varchar(40) not null</text><text fill="#000000" font-family="sans-serif" font-size="14" lengthAdjust="spacing" textLength="188" x="1091.5" y="455.5801">nazwisko: varchar(40) not null</text><text fill="#000000" font-family="sans-serif" font-size="14" lengthAdjust="spacing" textLength="136" x="1091.5" y="473.1895">tyt_nauk: varchar(30)</text><text fill="#000000" font-family="sans-serif" font-size="14" lengthAdjust="spacing" textLength="162" x="1091.5" y="490.7988">login: varchar(80) not null</text><text fill="#000000" font-family="sans-serif" font-size="14" lengthAdjust="spacing" textLength="166" x="1091.5" y="508.4082">haslo: varchar(60) not null</text><text fill="#000000" font-family="sans-serif" font-size="14" lengthAdjust="spacing" textLength="165" x="1091.5" y="526.0176">email: varchar(40) not null</text><ellipse cx="1082.5" cy="539.3984" fill="#84BE84" rx="3" ry="3" style="stroke:#038048;stroke-width:1.0;"/><text fill="#000000" font-family="sans-serif" font-size="14" lengthAdjust="spacing" textLength="117" x="1091.5" y="543.627">id_zdjecia: int (FK)</text><ellipse cx="1082.5" cy="557.0078" fill="#84BE84" rx="3" ry="3" style="stroke:#038048;stroke-width:1.0;"/><text fill="#000000" font-family="sans-serif" font-size="14" lengthAdjust="spacing" textLength="93" x="1091.5" y="561.2363">id_roli: int (FK)</text></g><!--MD5=[47bc4c956cdfbcdf6333b624b3aa3d43]
class zadania--><g id="elem_zadania"><rect codeLine="124" fill="#F1F1F1" height="188.875" id="zadania" rx="2.5" ry="2.5" style="stroke:#181818;stroke-width:0.5;" width="197" x="243" y="344"/><ellipse cx="312.75" cy="360" fill="#ADD1B2" rx="11" ry="11" style="stroke:#181818;stroke-width:1.0;"/><path d="M311.6094,360.7969 L311.6094,363.2969 L315.9375,363.2969 L315.9375,362.375 Q315.9375,361.7656 316.1719,361.5 Q316.4219,361.2344 316.7969,361.2344 Q317.1719,361.2344 317.4063,361.5 Q317.6406,361.7656 317.6406,362.375 L317.6406,365 L309.6406,365 Q309.0156,365 308.75,364.7656 Q308.5,364.5313 308.5,364.1406 Q308.5,363.7656 308.7656,363.5313 Q309.0313,363.2969 309.6406,363.2969 L309.9063,363.2969 L309.9063,356.6406 L309.6406,356.6406 Q309.0156,356.6406 308.75,356.4063 Q308.5,356.1719 308.5,355.7813 Q308.5,355.4063 308.75,355.1719 Q309.0156,354.9375 309.6406,354.9375 L317.2656,354.9375 L317.2656,357.5313 Q317.2656,358.1406 317.0313,358.4063 Q316.8125,358.6563 316.4219,358.6563 Q316.0469,358.6563 315.8125,358.4063 Q315.5781,358.1406 315.5781,357.5313 L315.5781,356.6406 L311.6094,356.6406 L311.6094,359.0938 L313.0938,359.0938 Q313.0938,358.4375 313.2188,358.25 Q313.4844,357.8438 313.9531,357.8438 Q314.3281,357.8438 314.5625,358.1094 Q314.7969,358.3594 314.7969,358.9688 L314.7969,360.9375 Q314.7969,361.4844 314.6719,361.6719 Q314.4063,362.0625 313.9531,362.0625 Q313.4844,362.0625 313.2188,361.6563 Q313.0938,361.4688 313.0938,360.7969 L311.6094,360.7969 Z " fill="#000000"/><text fill="#000000" font-family="sans-serif" font-size="14" lengthAdjust="spacing" textLength="49" x="333.25" y="365.7285">zadania</text><line style="stroke:#181818;stroke-width:0.5;" x1="244" x2="439" y1="376" y2="376"/><text fill="#000000" font-family="sans-serif" font-size="14" lengthAdjust="spacing" textLength="185" x="249" y="394.5332">data_wstaw: datetime not null</text><text fill="#000000" font-family="sans-serif" font-size="14" lengthAdjust="spacing" textLength="177" x="249" y="412.1426">data_pocz: datetime not null</text><text fill="#000000" font-family="sans-serif" font-size="14" lengthAdjust="spacing" textLength="178" x="249" y="429.752">data_konc: datetime not null</text><text fill="#000000" font-family="sans-serif" font-size="14" lengthAdjust="spacing" textLength="116" x="249" y="447.3613">tresc: blob not null</text><line style="stroke:#181818;stroke-width:0.5;" x1="244" x2="439" y1="454.4375" y2="454.4375"/><ellipse cx="254" cy="468.7422" fill="#84BE84" rx="3" ry="3" style="stroke:#038048;stroke-width:1.0;"/><text fill="#000000" font-family="sans-serif" font-size="14" lengthAdjust="spacing" textLength="123" x="263" y="472.9707">id_zadania: int (PK)</text><ellipse cx="254" cy="486.3516" fill="#84BE84" rx="3" ry="3" style="stroke:#038048;stroke-width:1.0;"/><text fill="#000000" font-family="sans-serif" font-size="14" lengthAdjust="spacing" textLength="120" x="263" y="490.5801">id_przedm: int (FK)</text><text fill="#000000" font-family="sans-serif" font-size="14" lengthAdjust="spacing" textLength="124" x="263" y="508.1895">opis: varchar(1000)</text><ellipse cx="254" cy="521.5703" fill="#84BE84" rx="3" ry="3" style="stroke:#038048;stroke-width:1.0;"/><text fill="#000000" font-family="sans-serif" font-size="14" lengthAdjust="spacing" textLength="101" x="263" y="525.7988">id_typu: int (FK)</text></g><!--MD5=[c14ba20c83a06c954e405aaf1fb8e7f7]
class zdjecia--><g id="elem_zdjecia"><rect codeLine="135" fill="#F1F1F1" height="153.6563" id="zdjecia" rx="2.5" ry="2.5" style="stroke:#181818;stroke-width:0.5;" width="194" x="1081.5" y="663"/><ellipse cx="1152.75" cy="679" fill="#ADD1B2" rx="11" ry="11" style="stroke:#181818;stroke-width:1.0;"/><path d="M1151.6094,679.7969 L1151.6094,682.2969 L1155.9375,682.2969 L1155.9375,681.375 Q1155.9375,680.7656 1156.1719,680.5 Q1156.4219,680.2344 1156.7969,680.2344 Q1157.1719,680.2344 1157.4063,680.5 Q1157.6406,680.7656 1157.6406,681.375 L1157.6406,684 L1149.6406,684 Q1149.0156,684 1148.75,683.7656 Q1148.5,683.5313 1148.5,683.1406 Q1148.5,682.7656 1148.7656,682.5313 Q1149.0313,682.2969 1149.6406,682.2969 L1149.9063,682.2969 L1149.9063,675.6406 L1149.6406,675.6406 Q1149.0156,675.6406 1148.75,675.4063 Q1148.5,675.1719 1148.5,674.7813 Q1148.5,674.4063 1148.75,674.1719 Q1149.0156,673.9375 1149.6406,673.9375 L1157.2656,673.9375 L1157.2656,676.5313 Q1157.2656,677.1406 1157.0313,677.4063 Q1156.8125,677.6563 1156.4219,677.6563 Q1156.0469,677.6563 1155.8125,677.4063 Q1155.5781,677.1406 1155.5781,676.5313 L1155.5781,675.6406 L1151.6094,675.6406 L1151.6094,678.0938 L1153.0938,678.0938 Q1153.0938,677.4375 1153.2188,677.25 Q1153.4844,676.8438 1153.9531,676.8438 Q1154.3281,676.8438 1154.5625,677.1094 Q1154.7969,677.3594 1154.7969,677.9688 L1154.7969,679.9375 Q1154.7969,680.4844 1154.6719,680.6719 Q1154.4063,681.0625 1153.9531,681.0625 Q1153.4844,681.0625 1153.2188,680.6563 Q1153.0938,680.4688 1153.0938,679.7969 L1151.6094,679.7969 Z " fill="#000000"/><text fill="#000000" font-family="sans-serif" font-size="14" lengthAdjust="spacing" textLength="43" x="1173.25" y="684.7285">zdjecia</text><line style="stroke:#181818;stroke-width:0.5;" x1="1082.5" x2="1274.5" y1="695" y2="695"/><text fill="#000000" font-family="sans-serif" font-size="14" lengthAdjust="spacing" textLength="155" x="1087.5" y="713.5332">zdjecie: longblob not null</text><text fill="#000000" font-family="sans-serif" font-size="14" lengthAdjust="spacing" textLength="135" x="1087.5" y="731.1426">data_wstaw: datetime</text><line style="stroke:#181818;stroke-width:0.5;" x1="1082.5" x2="1274.5" y1="738.2188" y2="738.2188"/><ellipse cx="1092.5" cy="752.5234" fill="#84BE84" rx="3" ry="3" style="stroke:#038048;stroke-width:1.0;"/><text fill="#000000" font-family="sans-serif" font-size="14" lengthAdjust="spacing" textLength="117" x="1101.5" y="756.752">id_zdjecia: int (PK)</text><text fill="#000000" font-family="sans-serif" font-size="14" lengthAdjust="spacing" textLength="121" x="1101.5" y="774.3613">nazwa: varchar(40)</text><text fill="#000000" font-family="sans-serif" font-size="14" lengthAdjust="spacing" textLength="168" x="1101.5" y="791.9707">ext: varchar(5) default 'jpg'</text><text fill="#000000" font-family="sans-serif" font-size="14" lengthAdjust="spacing" textLength="97" x="1101.5" y="809.5801">alt: varchar(20)</text></g><!--MD5=[cf7dbe2995ceb81880329e17a9e6244c]
class status--><g id="elem_status"><rect fill="#F1F1F1" height="48" id="status" rx="2.5" ry="2.5" style="stroke:#181818;stroke-width:0.5;" width="70" x="756.5" y="947"/><ellipse cx="771.5" cy="963" fill="#ADD1B2" rx="11" ry="11" style="stroke:#181818;stroke-width:1.0;"/><path d="M774.2656,958.875 Q774.4219,958.6563 774.6094,958.5469 Q774.7969,958.4375 775.0156,958.4375 Q775.3906,958.4375 775.625,958.7031 Q775.8594,958.9531 775.8594,959.5625 L775.8594,961.0156 Q775.8594,961.625 775.625,961.8906 Q775.3906,962.1563 775.0156,962.1563 Q774.6719,962.1563 774.4688,961.9531 Q774.2656,961.7656 774.1563,961.25 Q774.1094,960.8906 773.9219,960.7031 Q773.5938,960.3281 772.9844,960.1094 Q772.375,959.8906 771.75,959.8906 Q770.9844,959.8906 770.3438,960.2188 Q769.7188,960.5469 769.2188,961.2969 Q768.7344,962.0469 768.7344,963.0781 L768.7344,964.1719 Q768.7344,965.4063 769.625,966.2344 Q770.5156,967.0469 772.1094,967.0469 Q773.0469,967.0469 773.7031,966.7969 Q774.0938,966.6406 774.5156,966.2031 Q774.7813,965.9375 774.9219,965.8594 Q775.0781,965.7813 775.2813,965.7813 Q775.6094,965.7813 775.8594,966.0469 Q776.125,966.2969 776.125,966.6406 Q776.125,966.9844 775.7813,967.3906 Q775.2813,967.9688 774.4844,968.2969 Q773.4063,968.75 772.1094,968.75 Q770.5938,968.75 769.3906,968.125 Q768.4063,967.625 767.7188,966.5625 Q767.0313,965.4844 767.0313,964.2031 L767.0313,963.0469 Q767.0313,961.7188 767.6406,960.5781 Q768.2656,959.4219 769.3594,958.8125 Q770.4531,958.1875 771.6875,958.1875 Q772.4219,958.1875 773.0625,958.3594 Q773.7188,958.5156 774.2656,958.875 Z " fill="#000000"/><text fill="#000000" font-family="sans-serif" font-size="14" lengthAdjust="spacing" textLength="38" x="785.5" y="968.7285">status</text><line style="stroke:#181818;stroke-width:0.5;" x1="757.5" x2="825.5" y1="979" y2="979"/><line style="stroke:#181818;stroke-width:0.5;" x1="757.5" x2="825.5" y1="987" y2="987"/></g><!--MD5=[94fc11b220079d9fd76f0eafdc1a69e6]
link flagi to przedmioty--><g id="link_flagi_przedmioty"><path codeLine="144" d="M909.51,480.09 C886.49,505.71 855.74,539.28 827.5,568 C809.97,585.83 791.15,604.35 772.51,622.35 " fill="none" id="flagi-to-przedmioty" style="stroke:#181818;stroke-width:1.0;"/><line style="stroke:#181818;stroke-width:1.0;" x1="772.5031" x2="772.2886" y1="622.3614" y2="627.91"/><line style="stroke:#181818;stroke-width:1.0;" x1="772.5031" x2="761.1914" y1="622.3614" y2="627.91"/><line style="stroke:#181818;stroke-width:1.0;" x1="772.5031" x2="766.74" y1="622.3614" y2="627.91"/></g><!--MD5=[0014c3c5e34af23c11136013a8831bcb]
link forum_odp to forum_wpisy--><g id="link_forum_odp_forum_wpisy"><path codeLine="145" d="M647.5,196.32 C647.5,242.42 647.5,303.9 647.5,353.25 " fill="none" id="forum_odp-to-forum_wpisy" style="stroke:#181818;stroke-width:1.0;"/><line style="stroke:#181818;stroke-width:1.0;" x1="647.5" x2="655.5" y1="353.37" y2="361.37"/><line style="stroke:#181818;stroke-width:1.0;" x1="647.5" x2="639.5" y1="353.37" y2="361.37"/><line style="stroke:#181818;stroke-width:1.0;" x1="647.5" x2="647.5" y1="353.37" y2="361.37"/></g><!--MD5=[91a10945dcace7d5258bc550a16bdb5d]
link forum_wpisy to przedmioty--><g id="link_forum_wpisy_przedmioty"><path codeLine="146" d="M647.5,515.85 C647.5,547.3 647.5,584.48 647.5,619.39 " fill="none" id="forum_wpisy-to-przedmioty" style="stroke:#181818;stroke-width:1.0;"/><line style="stroke:#181818;stroke-width:1.0;" x1="647.5" x2="655.5" y1="619.74" y2="627.74"/><line style="stroke:#181818;stroke-width:1.0;" x1="647.5" x2="639.5" y1="619.74" y2="627.74"/><line style="stroke:#181818;stroke-width:1.0;" x1="647.5" x2="647.5" y1="619.74" y2="627.74"/></g><!--MD5=[db9b062ff54dc6169ab324a85c62cb25]
link materialy to przedmioty--><g id="link_materialy_przedmioty"><path codeLine="147" d="M433.73,249.48 C442.21,269.17 450.45,289.5 457.5,309 C498.13,421.36 478.87,459.78 529.5,568 C537.8,585.74 547.88,603.64 558.63,620.85 " fill="none" id="materialy-to-przedmioty" style="stroke:#181818;stroke-width:1.0;"/><line style="stroke:#181818;stroke-width:1.0;" x1="558.6616" x2="569.6998" y1="620.9002" y2="627.66"/><line style="stroke:#181818;stroke-width:1.0;" x1="558.6616" x2="556.1802" y1="620.9002" y2="627.66"/><line style="stroke:#181818;stroke-width:1.0;" x1="558.6616" x2="562.94" y1="620.9002" y2="627.66"/></g><!--MD5=[1fd83f3856db635367ff4d305ef9a60d]
link materialy to zadania--><g id="link_materialy_zadania"><path codeLine="148" d="M362.87,249.16 C359.62,277.8 356.18,308.09 353.04,335.81 " fill="none" id="materialy-to-zadania" style="stroke:#181818;stroke-width:1.0;"/><line style="stroke:#181818;stroke-width:1.0;" x1="353.0232" x2="360.0577" y1="335.9923" y2="343.94"/><line style="stroke:#181818;stroke-width:1.0;" x1="353.0232" x2="344.1623" y1="335.9923" y2="343.94"/><line style="stroke:#181818;stroke-width:1.0;" x1="353.0232" x2="352.11" y1="335.9923" y2="343.94"/></g><!--MD5=[15746a2d368f0d517f81e4c266abb649]
link odpowiedzi_zadania to zadania--><g id="link_odpowiedzi_zadania_zadania"><path codeLine="149" d="M177.27,222.82 C204.91,258.95 236.57,300.33 264.67,337.06 " fill="none" id="odpowiedzi_zadania-to-zadania" style="stroke:#181818;stroke-width:1.0;"/><line style="stroke:#181818;stroke-width:1.0;" x1="265.0131" x2="276.2269" y1="337.5031" y2="343.86"/><line style="stroke:#181818;stroke-width:1.0;" x1="265.0131" x2="263.5131" y1="337.5031" y2="343.86"/><line style="stroke:#181818;stroke-width:1.0;" x1="265.0131" x2="269.87" y1="337.5031" y2="343.86"/></g><!--MD5=[35f077445a9005525ae151dc8313e93e]
link powiadomienia to uzytkownicy--><g id="link_powiadomienia_uzytkownicy"><path codeLine="150" d="M1113.61,196.32 C1121.86,226.98 1131.94,264.44 1141.67,300.61 " fill="none" id="powiadomienia-to-uzytkownicy" style="stroke:#181818;stroke-width:1.0;"/><line style="stroke:#181818;stroke-width:1.0;" x1="1141.7989" x2="1151.5973" y1="301.0627" y2="308.79"/><line style="stroke:#181818;stroke-width:1.0;" x1="1141.7989" x2="1136.1427" y1="301.0627" y2="308.79"/><line style="stroke:#181818;stroke-width:1.0;" x1="1141.7989" x2="1143.87" y1="301.0627" y2="308.79"/></g><!--MD5=[7a13092fe7679d2a8fa7175b446294c4]
link powiadomienia to flagi--><g id="link_powiadomienia_flagi"><path codeLine="151" d="M1062.77,196.32 C1034.42,254.62 994.12,337.51 968.9,389.37 " fill="none" id="powiadomienia-to-flagi" style="stroke:#181818;stroke-width:1.0;"/><line style="stroke:#181818;stroke-width:1.0;" x1="968.7916" x2="972.4978" y1="389.5822" y2="396.78"/><line style="stroke:#181818;stroke-width:1.0;" x1="968.7916" x2="958.1022" y1="389.5822" y2="396.78"/><line style="stroke:#181818;stroke-width:1.0;" x1="968.7916" x2="965.3" y1="389.5822" y2="396.78"/></g><!--MD5=[f601ce46e53ed14a08057b94111bd556]
link przedmioty to przedmiot_status--><g id="link_przedmioty_przedmiot_status"><path codeLine="152" d="M647.5,852.15 C647.5,872.9 647.5,893.8 647.5,912.11 " fill="none" id="przedmioty-to-przedmiot_status" style="stroke:#181818;stroke-width:1.0;"/><line style="stroke:#181818;stroke-width:1.0;" x1="647.5" x2="655.5" y1="912.34" y2="920.34"/><line style="stroke:#181818;stroke-width:1.0;" x1="647.5" x2="639.5" y1="912.34" y2="920.34"/><line style="stroke:#181818;stroke-width:1.0;" x1="647.5" x2="647.5" y1="912.34" y2="920.34"/></g><!--MD5=[cd55981636f5e71d48b235bee322e23f]
link przedmioty to okresy--><g id="link_przedmioty_okresy"><path codeLine="153" d="M560.14,852.15 C545.82,870.35 531.42,888.68 518.38,905.27 " fill="none" id="przedmioty-to-okresy" style="stroke:#181818;stroke-width:1.0;"/><line style="stroke:#181818;stroke-width:1.0;" x1="518.2051" x2="519.5486" y1="905.4914" y2="911.78"/><line style="stroke:#181818;stroke-width:1.0;" x1="518.2051" x2="506.9714" y1="905.4914" y2="911.78"/><line style="stroke:#181818;stroke-width:1.0;" x1="518.2051" x2="513.26" y1="905.4914" y2="911.78"/></g><!--MD5=[12a41c32dcd2a2f50944a619a3149437]
link przedmioty to status--><g id="link_przedmioty_status"><path codeLine="154" d="M717.39,852.15 C737.69,884.43 758.22,917.08 772.51,939.8 " fill="none" id="przedmioty-to-status" style="stroke:#181818;stroke-width:1.0;"/><line style="stroke:#181818;stroke-width:1.0;" x1="772.662" x2="783.6927" y1="940.0373" y2="946.81"/><line style="stroke:#181818;stroke-width:1.0;" x1="772.662" x2="770.1473" y1="940.0373" y2="946.81"/><line style="stroke:#181818;stroke-width:1.0;" x1="772.662" x2="776.92" y1="940.0373" y2="946.81"/></g><!--MD5=[854663068622c319d858c5df8125c9de]
link raport to uzytkownicy--><g id="link_raport_uzytkownicy"><path codeLine="155" d="M1281.7,196.32 C1268.52,227.11 1252.41,264.75 1236.88,301.06 " fill="none" id="raport-to-uzytkownicy" style="stroke:#181818;stroke-width:1.0;"/><line style="stroke:#181818;stroke-width:1.0;" x1="1236.73" x2="1240.9195" y1="301.4405" y2="308.79"/><line style="stroke:#181818;stroke-width:1.0;" x1="1236.73" x2="1226.2205" y1="301.4405" y2="308.79"/><line style="stroke:#181818;stroke-width:1.0;" x1="1236.73" x2="1233.57" y1="301.4405" y2="308.79"/></g><!--MD5=[e231f9456b751390399daea611a69dca]
link uzytkownicy to zdjecia--><g id="link_uzytkownicy_zdjecia"><path codeLine="156" d="M1165.86,568.25 C1165.55,597.42 1165.89,627.67 1166.89,654.46 " fill="none" id="uzytkownicy-to-zdjecia" style="stroke:#181818;stroke-width:1.0;"/><line style="stroke:#181818;stroke-width:1.0;" x1="1166.8917" x2="1175.2133" y1="654.6667" y2="662.66"/><line style="stroke:#181818;stroke-width:1.0;" x1="1166.8917" x2="1159.2267" y1="654.6667" y2="662.66"/><line style="stroke:#181818;stroke-width:1.0;" x1="1166.8917" x2="1167.22" y1="654.6667" y2="662.66"/></g><!--MD5=[0947b91a77a56a6d51f874d000d20377]
link zdjecia to uzytkownicy--><g id="link_zdjecia_uzytkownicy"><path codeLine="161" d="M1190.44,662.66 C1191.65,636.41 1192.16,606.16 1191.96,576.58 " fill="none" id="zdjecia-to-uzytkownicy" style="stroke:#181818;stroke-width:1.0;"/><line style="stroke:#181818;stroke-width:1.0;" x1="1191.9514" x2="1183.8803" y1="576.2497" y2="568.25"/><line style="stroke:#181818;stroke-width:1.0;" x1="1191.9514" x2="1199.8797" y1="576.2497" y2="568.25"/><line style="stroke:#181818;stroke-width:1.0;" x1="1191.9514" x2="1191.88" y1="576.2497" y2="568.25"/></g><!--MD5=[490cf0731f9d0be306ca176e47f0c85e]
link uczen_przedmiot to przedmioty--><g id="link_uczen_przedmiot_przedmioty"><path codeLine="157" d="M856.73,196.3 C836.14,302.02 794.93,501.8 765.5,568 C757.54,585.89 747.66,603.89 737.01,621.14 " fill="none" id="uczen_przedmiot-to-przedmioty" style="stroke:#181818;stroke-width:1.0;"/><line style="stroke:#181818;stroke-width:1.0;" x1="736.9813" x2="739.5232" y1="621.1868" y2="627.97"/><line style="stroke:#181818;stroke-width:1.0;" x1="736.9813" x2="725.9568" y1="621.1868" y2="627.97"/><line style="stroke:#181818;stroke-width:1.0;" x1="736.9813" x2="732.74" y1="621.1868" y2="627.97"/></g><!--MD5=[1cc0663c1af64b72781bd587d78068d0]
link uczen_przedmiot to uzytkownicy--><g id="link_uczen_przedmiot_uzytkownicy"><path codeLine="158" d="M924.82,196.19 C940.54,214 958.13,232.77 975.5,249 C1007.46,278.86 1020.83,279.92 1053.5,309 C1057.48,312.55 1061.49,316.19 1065.51,319.91 " fill="none" id="uczen_przedmiot-to-uzytkownicy" style="stroke:#181818;stroke-width:1.0;"/><line style="stroke:#181818;stroke-width:1.0;" x1="1065.5435" x2="1071.39" y1="319.9494" y2="319.5635"/><line style="stroke:#181818;stroke-width:1.0;" x1="1065.5435" x2="1071.39" y1="319.9494" y2="331.2565"/><line style="stroke:#181818;stroke-width:1.0;" x1="1065.5435" x2="1071.39" y1="319.9494" y2="325.41"/></g><!--MD5=[499199903bfbb7148b934d68f9aa0c3f]
link zadania to przedmioty--><g id="link_zadania_przedmioty"><path codeLine="159" d="M432.64,533.23 C444.31,545 456.14,556.82 467.5,568 C485.46,585.67 504.6,604.19 523.44,622.25 " fill="none" id="zadania-to-przedmioty" style="stroke:#181818;stroke-width:1.0;"/><line style="stroke:#181818;stroke-width:1.0;" x1="523.4961" x2="534.8069" y1="622.3131" y2="627.84"/><line style="stroke:#181818;stroke-width:1.0;" x1="523.4961" x2="523.7531" y1="622.3131" y2="627.84"/><line style="stroke:#181818;stroke-width:1.0;" x1="523.4961" x2="529.28" y1="622.3131" y2="627.84"/></g><!--MD5=[9a1530156302f7b31da22e8b81c62c5a]
link zadania to typy_zadan--><g id="link_zadania_typy_zadan"><path codeLine="160" d="M341.5,533.03 C341.5,585 341.5,647.55 341.5,689.98 " fill="none" id="zadania-to-typy_zadan" style="stroke:#181818;stroke-width:1.0;"/><line style="stroke:#181818;stroke-width:1.0;" x1="341.5" x2="349.5" y1="690.18" y2="698.18"/><line style="stroke:#181818;stroke-width:1.0;" x1="341.5" x2="333.5" y1="690.18" y2="698.18"/><line style="stroke:#181818;stroke-width:1.0;" x1="341.5" x2="341.5" y1="690.18" y2="698.18"/></g><!--MD5=[ee16f683b46b8a8b34f19d8c307dc9e0]
@startuml lms-database

entity flagi {
  + id_flagi: int (PK)
  kod: varchar(14) not null
}

entity forum_odp {
  + id_odp: int (PK)
  + id_wpis: int (FK)
  + id_uzytk: int (FK)
  tresc: varchar(700) not null
  data_wpis: datetime not null
}

entity forum_wpisy {
  + id_wpis: int (PK)
  + id_przedm: int (FK)
  + id_uzytk: int (FK)
  temat: varchar(200) not null
  tresc: varchar(700) not null
  data_wpis: datetime not null
}

entity materialy {
  + id_mater: int (PK)
  + id_przedm: int (FK)
  data_wstaw: datetime not null
  lp: int
  temat: varchar(200) not null
  plik: longblob not null
  nazwa_pliku: varchar(80) not null
  ext: varchar(5) not null
  opis: varchar(500)
  widocznosc: tinyint(1) not null default '1'
  + id_zadania: int (FK)
}

entity odpowiedzi_zadania {
  + id_odpowiedzi: int (PK)
  + id_zadania: int (FK)
  + id_ucznia: int (FK)
  tresc: blob not null
  koment: varchar(500)
  ocena: int
  data_wstaw: datetime not null
  data_oceny: datetime
}

entity okresy {
  + id_okresu: int (PK)
  kod: varchar(10)
  data_pocz: datetime
  data_konc: datetime
}

entity powiadomienia {
  + id_powiadom: int (PK)
  + id_odbiorcy: int (FK)
  data_wstaw: datetime not null
  tresc: varchar(1000) not null
  + id_flagi: int (FK)
}

entity przedmioty {
  + id_przedm: int (PK)
  kod: varchar(15) not null
  nazwa: varchar(1000) not null
  + id_prow: int (FK)
  limit_miejsc: int not null
  opis: varchar(2000)
  war_zalicz: varchar(2000)
  + id_okresu: int (FK)
  + id_status: int (FK)
  rejestr_uczn: tinyint(1) not null default '1'
}

entity przedmiot_status {
  + id_status: int (PK)
  kod: varchar(3)
  nazwa: varchar(20)
}

entity raport {
  + id_raportu: int (PK)
  + id_uzytk: int (FK)
  nazwa: varchar(50)
  data_wystaw: datetime
  raport: blob
}

entity role {
  + id_roli: int (PK)
  nazwa: varchar(10) not null
}

entity typy_zadan {
  + id_typu: int (PK)
  nazwa: varchar(10) not null
}

entity uczen_przedmiot {
  + id_encji: int (PK)
  + id_przedm: int (FK)
  + id_ucznia: int (FK)
  ocena: int
  data_wystaw_oc: datetime
}

entity uzytkownicy {
  + id_uzytk: int (PK)
  imie: varchar(40) not null
  nazwisko: varchar(40) not null
  tyt_nauk: varchar(30)
  login: varchar(80) not null
  haslo: varchar(60) not null
  email: varchar(40) not null
  telefon: int not null
  data_urodz: date not null
  status: tinyint not null default '0'
  + id_zdjecia: int (FK)
  + id_roli: int (FK)
}

entity zadania {
  + id_zadania: int (PK)
  + id_przedm: int (FK)
  opis: varchar(1000)
  data_wstaw: datetime not null
  data_pocz: datetime not null
  data_konc: datetime not null
  tresc: blob not null
  + id_typu: int (FK)
}

entity zdjecia {
  + id_zdjecia: int (PK)
  zdjecie: longblob not null
  nazwa: varchar(40)
  ext: varchar(5) default 'jpg'
  alt: varchar(20)
  data_wstaw: datetime
}

flagi - -{ przedmioty
forum_odp - -{ forum_wpisy
forum_wpisy - -{ przedmioty
materialy - -{ przedmioty
materialy - -{ zadania
odpowiedzi_zadania - -{ zadania
powiadomienia - -{ uzytkownicy
powiadomienia - -{ flagi
przedmioty - -{ przedmiot_status
przedmioty - -{ okresy
przedmioty - -{ status
raport - -{ uzytkownicy
uzytkownicy - -{ zdjecia
uczen_przedmiot - -{ przedmioty
uczen_przedmiot - -{ uzytkownicy
zadania - -{ przedmioty
zadania - -{ typy_zadan
zdjecia - -{ uzytkownicy

@enduml

PlantUML version 1.2022.7(Mon Aug 22 19:01:30 CEST 2022)
(GPL source distribution)
Java Runtime: Java(TM) SE Runtime Environment
JVM: Java HotSpot(TM) 64-Bit Server VM
Default Encoding: UTF-8
Language: pl
Country: PL
--></g></svg>